<svg xmlns="http://www.w3.org/2000/svg" viewBox="0 0 100 100" width="100" height="100">
  <circle cx="50" cy="50" r="50" fill="#050b14"/>
  <circle cx="50" cy="50" r="44" fill="none" stroke="#00ffe5" stroke-width="1" stroke-dasharray="4 3" opacity="0.5"/>
  <polygon points="50,20 72,34 72,66 50,80 28,66 28,34" fill="none" stroke="#00ffe5" stroke-width="2.5"/>
  <path d="M36,50 C34,42 38,35 44,37 C43,30 48,26 50,28 L50,72 C48,74 43,70 44,63 C38,65 34,58 36,50Z" fill="#00ffe5"/>
  <path d="M64,50 C66,42 62,35 56,37 C57,30 52,26 50,28 L50,72 C52,74 57,70 56,63 C62,65 66,58 64,50Z" fill="#00ffe5"/>
  <circle cx="50" cy="20" r="3" fill="#00ffe5"/>
  <circle cx="72" cy="34" r="2.5" fill="#00ffe5"/>
  <circle cx="72" cy="66" r="2.5" fill="#00ffe5"/>
  <circle cx="50" cy="80" r="3" fill="#00ffe5"/>
  <circle cx="28" cy="66" r="2.5" fill="#00ffe5"/>
  <circle cx="28" cy="34" r="2.5" fill="#00ffe5"/>
</svg>